<?xml version="1.0" standalone="no"?>
<!DOCTYPE svg PUBLIC "-//W3C//DTD SVG 20010904//EN"
 "http://www.w3.org/TR/2001/REC-SVG-20010904/DTD/svg10.dtd">
<svg version="1.0" xmlns="http://www.w3.org/2000/svg"
 width="320.000000pt" height="320.000000pt" viewBox="0 0 320.000000 320.000000"
 preserveAspectRatio="xMidYMid meet">

<g transform="translate(0.000000,320.000000) scale(0.100000,-0.100000)"
fill="#000000" stroke="none">
<path d="M0 1600 l0 -1600 1600 0 1600 0 0 1600 0 1600 -1600 0 -1600 0 0
-1600z m1725 1144 c107 -50 180 -145 206 -265 31 -144 -53 -314 -189 -383
-238 -120 -511 26 -541 290 -5 38 -9 59 -10 46 -1 -31 -34 -92 -63 -119 -42
-40 -91 -53 -193 -53 l-95 0 0 -100 0 -100 -95 0 -95 0 0 350 0 350 190 0
c149 0 199 -3 228 -15 78 -33 119 -98 129 -202 l6 -67 12 40 c36 122 123 208
250 251 66 22 189 11 260 -23z m-40 -729 c105 -31 208 -132 240 -236 13 -42
14 -37 14 99 l1 143 102 -3 101 -3 106 -170 106 -170 3 173 2 172 100 0 100 0
0 -345 0 -345 -102 0 -103 1 -105 189 -105 189 -3 -190 -2 -189 -100 0 -100 0
0 138 -1 137 -17 -51 c-24 -68 -86 -148 -143 -185 -74 -47 -129 -61 -222 -58
-106 5 -194 45 -261 120 -118 132 -121 341 -5 472 96 110 253 155 394 112z
m-578 -27 c100 -66 124 -275 44 -384 l-27 -38 34 -66 c21 -41 35 -86 39 -123
l6 -58 -104 3 -103 3 -8 42 c-11 65 -33 99 -81 122 -24 12 -49 21 -55 21 -8 0
-12 -28 -12 -95 l0 -95 -95 0 -95 0 0 351 0 350 208 -3 c207 -3 209 -3 249
-30z m93 -721 c0 -7 -25 -39 -56 -71 -31 -31 -68 -83 -82 -114 -24 -50 -27
-69 -27 -162 0 -93 3 -111 27 -163 15 -32 52 -84 83 -116 90 -95 98 -92 -217
-89 l-273 3 -3 363 -2 362 275 0 c219 0 275 -3 275 -13z m390 -18 c57 -27 124
-78 140 -109 7 -14 -3 -26 -57 -66 -96 -71 -90 -69 -124 -36 -102 100 -279 23
-279 -120 0 -110 106 -190 210 -159 40 12 90 46 90 62 0 5 -31 9 -69 9 -102 0
-101 -1 -101 91 l0 79 206 0 207 0 -5 -85 c-20 -307 -337 -461 -591 -286 -130
89 -182 286 -115 433 43 94 105 152 207 195 78 33 201 29 281 -8z m744 3 c108
-48 182 -137 212 -252 31 -121 -5 -240 -100 -336 -77 -77 -147 -106 -256 -106
-221 -1 -382 169 -368 388 10 152 109 272 268 325 47 16 191 4 244 -19z"/>
<path d="M845 2588 c-3 -8 -5 -48 -3 -89 l3 -74 52 -3 c45 -3 56 1 78 22 31
31 34 92 7 126 -23 29 -128 42 -137 18z"/>
<path d="M1495 2566 c-120 -55 -126 -227 -10 -293 72 -41 154 -25 212 40 62
71 48 184 -30 239 -38 27 -128 35 -172 14z"/>
<path d="M1515 1825 c-115 -42 -147 -185 -61 -271 79 -79 210 -61 265 37 74
132 -61 287 -204 234z"/>
<path d="M847 1843 c-4 -3 -7 -39 -7 -80 l0 -73 60 0 c74 0 100 20 100 79 0
53 -34 81 -100 81 -26 0 -50 -3 -53 -7z"/>
<path d="M2151 1080 c-73 -17 -131 -86 -131 -157 0 -121 114 -201 225 -158
128 48 150 217 37 289 -44 28 -84 36 -131 26z"/>
</g>
</svg>
